<svg version="1.1" id="Layer_1" xmlns="http://www.w3.org/2000/svg" xmlns:xlink="http://www.w3.org/1999/xlink" x="0px" y="0px"
	 width="100%" viewBox="0 0 1024 1024" enable-background="new 0 0 1024 1024" xml:space="preserve">
<path fill="#000000" opacity="1.000000" stroke="none" 
	d="
M393.060181,634.114990 
	C385.735504,637.384949 384.698364,642.912598 384.813751,650.090942 
	C385.319916,681.584290 384.747681,713.098389 385.479950,744.583679 
	C386.001953,767.027832 387.435730,789.470032 389.905334,811.825195 
	C390.726318,819.257263 390.886353,826.755005 391.761963,834.213135 
	C393.371307,847.920227 396.293579,861.379944 398.591003,874.956970 
	C402.480042,897.939392 410.067078,919.654236 421.045013,940.072876 
	C428.490509,953.921326 438.380066,966.306580 452.019257,974.459778 
	C462.653442,980.816589 474.173035,985.326599 487.124634,986.065186 
	C509.922119,987.365479 530.875793,981.236023 551.328918,972.298767 
	C573.708618,962.519653 593.991760,949.331177 613.648438,934.902039 
	C628.165344,924.245789 641.891602,912.680359 655.253540,900.734802 
	C669.221130,888.247803 682.595215,875.068848 695.764771,861.694519 
	C707.661682,849.612610 719.432739,837.410156 730.831848,824.879456 
	C742.443665,812.114868 753.929382,799.221252 765.311401,786.239929 
	C776.600891,773.364441 787.552673,760.199341 798.871155,747.348694 
	C809.743713,735.004333 819.948242,722.070129 830.401611,709.358337 
	C844.750916,691.909058 859.190918,674.531738 873.339783,656.921021 
	C883.948181,643.717102 894.061157,630.116333 904.571411,616.832153 
	C917.775452,600.143188 931.163452,583.599854 944.464478,566.987610 
	C949.344971,560.892151 954.141785,554.728394 959.108337,548.704224 
	C960.669373,546.810791 962.170898,543.301758 965.339172,545.694397 
	C967.854614,547.594055 966.059326,550.156128 964.723267,552.341309 
	C954.932251,568.354675 944.577026,584.013062 934.602844,599.901794 
	C922.507874,619.168945 909.441467,637.773499 896.881836,656.712402 
	C888.100281,669.954346 878.832581,682.938843 869.445862,695.798035 
	C853.776733,717.263733 838.285034,738.865784 822.237061,760.045471 
	C811.912354,773.671814 800.791321,786.699219 789.905273,799.894470 
	C781.449585,810.143860 772.988159,820.399170 764.194458,830.356079 
	C754.974060,840.796021 745.665161,851.163574 736.286560,861.467346 
	C724.230652,874.712402 711.876953,887.667175 699.180115,900.260925 
	C686.711548,912.628418 673.808350,924.562500 660.626648,936.221802 
	C644.900879,950.131165 628.407959,962.980835 611.216431,974.886902 
	C592.197205,988.058655 571.914368,999.273315 550.236084,1007.435791 
	C532.440979,1014.136108 513.875977,1018.726990 494.734222,1018.583435 
	C481.301910,1018.482727 467.966888,1016.795105 455.082977,1011.820435 
	C440.231049,1006.085876 427.247437,997.767944 416.147614,986.607666 
	C405.053711,975.453430 396.316193,962.424194 389.792419,948.156067 
	C378.552246,923.572632 371.466766,897.851929 367.289368,871.003662 
	C361.432373,833.360718 359.368561,795.597656 358.618927,757.609131 
	C358.184875,735.614075 357.947540,713.630066 358.083588,691.638367 
	C358.150574,680.812744 358.557190,669.989441 358.764771,659.164185 
	C358.798889,657.385437 359.086700,655.517273 357.771149,653.431396 
	C351.799133,655.310364 345.977173,657.564148 339.752075,658.492493 
	C311.846619,662.653931 285.398468,659.102051 260.896454,644.365173 
	C258.500946,642.924500 255.871429,641.860107 253.310730,640.709595 
	C248.901260,638.728516 246.282150,642.708435 243.734436,644.541870 
	C227.111877,656.503845 209.056229,665.860291 189.876953,672.469849 
	C166.103210,680.662720 141.553741,684.696228 116.279243,679.566895 
	C104.457199,677.167603 92.968529,673.865662 83.119286,666.682556 
	C75.721184,661.286987 68.697899,655.322693 66.355293,645.751648 
	C66.236870,645.267822 65.907585,644.792603 65.928383,644.324524 
	C66.066673,641.213135 63.814529,636.908325 67.934380,635.507263 
	C71.849007,634.176025 72.050827,638.670410 73.505638,641.068115 
	C79.325714,650.660278 87.705849,656.926147 98.173332,661.014526 
	C116.199120,668.054932 134.484833,668.930664 153.514572,666.238403 
	C182.202118,662.179810 207.314911,649.898682 231.349136,634.692871 
	C233.427933,633.377747 235.249893,631.656555 238.632889,628.985718 
	C233.461655,624.359314 228.580963,620.191528 223.925674,615.785645 
	C214.844803,607.191162 207.432831,597.265564 200.378784,586.947266 
	C189.328781,570.783936 180.288071,553.585571 173.075882,535.484619 
	C167.369537,521.162903 162.145599,506.644989 158.480179,491.568237 
	C155.968826,481.238464 153.725769,470.870758 151.709534,460.450104 
	C150.802231,455.760803 147.843628,457.555450 145.681366,458.409698 
	C137.786743,461.528809 129.753494,464.217072 121.708969,466.903595 
	C111.404739,470.344788 101.065315,472.885620 90.003746,472.478882 
	C73.461678,471.870605 61.369587,460.329529 60.735363,443.803253 
	C60.299984,432.458344 62.923931,421.681366 66.939552,411.218536 
	C74.868752,390.558746 86.448242,371.843964 99.698898,354.357849 
	C114.452805,334.888000 130.821121,316.704895 149.990250,301.308685 
	C152.673767,299.153320 154.593246,296.762421 155.182297,293.166656 
	C159.119537,269.132874 167.015808,246.171036 175.342117,223.445190 
	C180.578903,209.151855 187.156967,195.314194 194.216797,181.721695 
	C203.670242,163.520706 214.393021,146.152039 226.527451,129.689316 
	C236.283966,116.452705 246.871231,103.869530 258.595947,92.245796 
	C269.244293,81.689171 280.519104,71.914452 292.704346,63.225941 
	C310.633698,50.441658 329.622162,39.757301 351.029541,33.688122 
	C369.661560,28.405785 388.386169,27.136305 407.163605,31.900795 
	C422.404419,35.767929 434.831573,44.505905 444.855988,56.583118 
	C456.551117,70.673195 463.215332,86.994736 467.779877,104.675652 
	C471.800751,120.250893 473.333466,135.906799 474.548431,151.820908 
	C475.594604,165.524246 474.548553,179.089188 474.019989,192.677170 
	C473.367554,209.449753 471.348663,226.134338 467.921722,242.624802 
	C465.526733,254.149368 463.611450,265.772736 461.339569,277.323975 
	C457.719391,295.730652 452.013611,313.580780 446.776215,331.559753 
	C443.521332,342.733124 439.698669,353.701965 435.916229,364.696686 
	C433.540771,371.601501 430.586334,378.276672 428.351685,385.251617 
	C426.823486,390.021637 427.868103,393.190002 431.226196,396.312286 
	C445.938232,409.990967 454.274658,427.187134 459.453949,446.346039 
	C464.535278,465.142273 464.618683,484.223694 463.086395,503.284698 
	C461.398163,524.285889 455.062744,544.185974 446.807831,563.584839 
	C441.691650,575.607727 435.203857,586.856445 427.919434,597.461548 
	C418.403809,611.315002 406.950836,623.730774 393.060181,634.114990 
M229.318100,158.830032 
	C206.928177,195.803070 190.730209,235.248260 181.013168,277.428619 
	C183.469772,278.060394 184.914749,277.480316 186.132065,276.670990 
	C190.871872,273.519775 196.014832,271.240234 201.225174,268.994232 
	C223.937073,259.203918 247.061951,255.588745 271.659943,261.319763 
	C293.047150,266.302704 309.047150,279.034790 322.726135,294.875244 
	C329.547668,302.774719 335.390320,311.744476 340.041595,321.465729 
	C345.845947,333.596832 352.179810,345.396545 355.522919,358.557495 
	C356.744720,363.367340 358.604187,367.566681 365.252686,367.712769 
	C381.131256,368.061798 395.955902,372.871338 409.882385,380.349823 
	C413.359863,382.217255 414.536835,381.360260 416.041870,377.900269 
	C422.409576,363.261230 427.897858,348.286102 432.401672,333.016937 
	C436.105103,320.461395 441.303619,308.348938 443.697174,295.408539 
	C445.509399,285.610748 448.418915,276.073425 450.517426,266.331055 
	C452.925568,255.151276 455.669464,244.005524 457.479950,232.738190 
	C459.586792,219.626556 460.730164,206.339493 461.823212,193.089920 
	C463.994781,166.767014 463.175751,140.507812 458.174408,114.536560 
	C455.656799,101.462944 450.745941,89.111130 444.216370,77.463150 
	C435.219391,61.413620 422.283325,50.516830 404.370117,45.114700 
	C387.495453,40.025784 371.304260,43.095673 355.335358,47.900589 
	C331.384186,55.107292 311.074371,68.992615 292.028320,84.796234 
	C282.810425,92.444862 274.418457,101.013702 266.210144,109.704567 
	C259.936371,116.347229 253.833038,123.272575 248.576279,130.722977 
	C242.174683,139.795990 235.205017,148.514038 229.318100,158.830032 
M334.910645,530.388367 
	C340.636261,522.062378 346.380798,513.749268 352.077698,505.403625 
	C354.201294,502.292633 355.132690,498.903473 354.909790,495.036987 
	C354.000916,479.272369 353.406830,463.515381 351.007233,447.841797 
	C348.520660,431.600555 345.835480,415.406830 342.472351,399.333496 
	C340.812469,391.400513 339.463837,390.278473 332.324707,391.532013 
	C320.059479,393.685638 307.796265,395.997803 295.702148,398.941589 
	C280.375702,402.672211 265.538116,408.147400 250.816223,413.725464 
	C225.812805,423.199158 201.461960,434.275970 177.052826,445.185486 
	C175.471741,445.892120 174.525452,446.599945 174.726654,448.437714 
	C175.034286,451.247711 174.773941,454.217529 175.596542,456.857178 
	C179.933456,470.774078 182.461685,485.135681 186.777344,499.098999 
	C194.182755,523.059204 204.261673,545.621460 217.492966,566.830933 
	C227.760574,583.289673 240.193756,597.902527 255.044006,610.458374 
	C258.263855,613.180725 260.496368,613.168884 263.457550,610.056152 
	C267.226196,606.094543 271.587677,602.704041 275.582642,598.949219 
	C286.718445,588.482910 297.384186,577.524353 307.170959,565.809753 
	C316.628326,554.489502 325.383728,542.582825 334.910645,530.388367 
M243.475021,283.008179 
	C227.802460,284.339752 213.559418,290.082336 199.687790,297.061646 
	C192.381790,300.737610 186.072586,305.971741 178.965988,309.951202 
	C175.769211,311.741333 173.737946,314.400696 173.299484,318.239960 
	C171.280807,335.916107 169.902985,353.637024 169.171066,371.413757 
	C168.587296,385.592285 170.474304,399.689423 170.429382,413.849854 
	C170.422195,416.115692 170.591660,418.536072 172.704910,420.339142 
	C173.311264,420.170959 173.960510,420.062256 174.552551,419.816071 
	C185.439514,415.288879 196.240280,410.568878 207.028564,405.807587 
	C220.991119,399.645325 235.281464,394.216888 249.490723,388.625092 
	C262.480347,383.513245 275.890656,379.584991 289.318726,375.904297 
	C302.099731,372.400970 315.062775,369.288483 328.338409,368.132874 
	C332.778381,367.746368 332.758972,365.945526 331.801636,362.253876 
	C329.610168,353.803497 325.682983,345.995117 321.868408,338.399719 
	C312.110535,318.970245 300.097870,301.213348 279.871063,290.591125 
	C268.588837,284.666138 256.885406,282.245087 243.475021,283.008179 
M384.235992,590.499390 
	C384.235992,596.895996 384.235992,603.292664 384.235992,609.811951 
	C386.897461,609.464539 388.067657,608.228333 389.243561,607.099182 
	C399.109161,597.626099 407.689453,587.166260 414.970184,575.517944 
	C428.196533,554.357178 436.077118,531.403809 439.980682,506.856232 
	C444.257538,479.961212 441.113159,454.272308 428.571533,429.957642 
	C425.564880,424.128662 421.776245,418.817749 416.147949,414.423340 
	C415.459503,415.989868 415.056549,416.871216 414.681946,417.764404 
	C406.527710,437.206116 397.248413,456.110840 386.866608,474.443848 
	C382.344788,482.428772 378.936035,490.422668 380.319946,499.826782 
	C380.997345,504.429932 381.814728,509.045410 382.020050,513.679626 
	C383.139069,538.940552 384.316132,564.202637 384.235992,590.499390 
M352.765076,531.211731 
	C329.424103,564.085754 304.346405,595.458435 273.544281,621.776428 
	C277.883728,626.999329 283.757721,627.771545 288.943756,629.799438 
	C310.502350,638.229431 332.030701,637.800598 353.630402,629.641846 
	C357.837250,628.052795 358.889252,625.791016 358.973083,621.537354 
	C359.580688,590.706726 357.624176,559.920105 357.597504,529.103943 
	C357.596436,527.856140 358.041962,526.402649 356.642944,525.358398 
	C354.532318,526.499084 354.521149,529.018311 352.765076,531.211731 
M110.273010,382.714874 
	C102.958115,393.262054 96.505791,404.273682 91.561394,416.165863 
	C88.366776,423.849487 85.002953,431.429077 84.496605,439.899231 
	C84.153412,445.640167 85.826660,447.774841 91.241280,447.994659 
	C95.232643,448.156647 99.227196,448.164856 103.178078,447.288757 
	C116.507965,444.332703 129.242371,439.778259 141.794479,434.362976 
	C146.964020,432.132660 148.117264,429.839447 147.178101,424.778931 
	C145.229614,414.279633 145.055847,403.587524 144.853165,392.946930 
	C144.551926,377.131561 144.817001,361.325836 147.454346,345.650848 
	C147.849167,343.304230 147.509293,340.833984 147.509293,336.960876 
	C133.239410,351.635803 121.138992,366.194427 110.273010,382.714874 
M387.313629,442.838074 
	C392.505585,431.919250 397.568085,420.935974 402.954468,410.113922 
	C405.053497,405.896576 404.149231,403.602722 400.022003,401.495178 
	C390.326324,396.544189 379.910278,393.950958 369.438843,391.479279 
	C368.263519,391.201843 366.753662,390.909729 365.964233,392.111115 
	C370.254272,414.725006 374.081207,437.211426 376.919983,460.813324 
	C382.753113,455.373413 383.258789,448.538757 387.313629,442.838074 
z"/>
<path fill="#000000" opacity="1.000000" stroke="none" 
	d="
M527.286499,308.552368 
	C525.645386,301.191742 522.993225,294.462921 522.495239,287.281830 
	C522.256714,283.842682 521.630066,279.904449 526.162109,278.556396 
	C530.781982,277.182312 533.317200,279.860474 535.029968,283.760986 
	C539.764771,294.543518 543.863953,305.567719 547.418823,316.787292 
	C552.022156,331.315796 556.589050,345.857330 560.982056,360.450378 
	C563.652649,369.321655 565.922485,378.312775 568.449036,387.228333 
	C572.556396,401.722107 576.757507,416.189423 580.858704,430.684937 
	C583.254150,439.151398 584.627380,447.860779 587.148804,456.316620 
	C590.366333,467.106659 593.233459,478.010773 595.913208,488.948669 
	C598.243347,498.459564 600.186218,508.069061 602.115540,517.672119 
	C602.636963,520.267334 602.510803,523.011230 601.405518,525.543701 
	C599.901428,528.989868 599.018677,533.130188 594.122620,533.311157 
	C589.081665,533.497559 585.252686,531.530212 582.500977,527.062134 
	C576.710693,517.660400 574.943359,506.890472 572.070679,496.559174 
	C568.252625,482.828217 564.777344,468.948059 562.208008,454.938873 
	C559.628662,440.875427 555.588867,427.191711 552.652893,413.228119 
	C549.009399,395.900085 544.693542,378.710449 540.330872,361.532654 
	C536.584717,346.782257 533.224304,331.907990 529.675110,317.092926 
	C529.018616,314.352509 528.179504,311.655884 527.286499,308.552368 
z"/>
<path fill="#000000" opacity="1.000000" stroke="none" 
	d="
M607.018921,605.245972 
	C598.854553,606.817749 590.435181,601.835571 587.769592,594.204651 
	C585.026611,586.352051 588.456665,578.054565 596.104980,574.041138 
	C603.580750,570.118286 611.987427,571.987183 616.867554,578.656799 
	C622.146790,585.872131 621.473999,594.017761 615.308350,600.299805 
	C613.030029,602.621216 610.588074,604.421875 607.018921,605.245972 
z"/>
</svg>